<?xml version="1.0" encoding="UTF-8" standalone="no"?>
<svg
   xmlns:dc="http://purl.org/dc/elements/1.1/"
   xmlns:cc="http://creativecommons.org/ns#"
   xmlns:rdf="http://www.w3.org/1999/02/22-rdf-syntax-ns#"
   xmlns:svg="http://www.w3.org/2000/svg"
   xmlns="http://www.w3.org/2000/svg"
   xmlns:xlink="http://www.w3.org/1999/xlink"
   xmlns:sodipodi="http://sodipodi.sourceforge.net/DTD/sodipodi-0.dtd"
   xmlns:inkscape="http://www.inkscape.org/namespaces/inkscape"
   xml:space="preserve"
   width="98px"
   height="37px"
   style="shape-rendering:geometricPrecision; text-rendering:geometricPrecision; image-rendering:optimizeQuality; fill-rule:evenodd; clip-rule:evenodd"
   viewBox="0 0 9.21814 3.48835"
   id="svg3791"
   version="1.1"
   inkscape:version="0.48.1 r9760"
   sodipodi:docname="car_icon.svg"><metadata
   id="metadata3803"><rdf:RDF><cc:Work
       rdf:about=""><dc:format>image/svg+xml</dc:format><dc:type
         rdf:resource="http://purl.org/dc/dcmitype/StillImage" /></cc:Work></rdf:RDF></metadata><sodipodi:namedview
   pagecolor="#ffffff"
   bordercolor="#666666"
   borderopacity="1"
   objecttolerance="10"
   gridtolerance="10"
   guidetolerance="10"
   inkscape:pageopacity="0"
   inkscape:pageshadow="2"
   inkscape:window-width="769"
   inkscape:window-height="480"
   id="namedview3801"
   showgrid="false"
   inkscape:zoom="4.8265306"
   inkscape:cx="49"
   inkscape:cy="20.882664"
   inkscape:window-x="0"
   inkscape:window-y="25"
   inkscape:window-maximized="0"
   inkscape:current-layer="svg3791" />
 <defs
   id="defs3793"><linearGradient
   inkscape:collect="always"
   id="linearGradient4313"><stop
     style="stop-color:#000000;stop-opacity:1;"
     offset="0"
     id="stop4315" /><stop
     style="stop-color:#000000;stop-opacity:0;"
     offset="1"
     id="stop4317" /></linearGradient>
  <style
   type="text/css"
   id="style3795">
   
    .fil0 {fill:#0A0B0C}
   
  </style>
 <linearGradient
   inkscape:collect="always"
   xlink:href="#linearGradient4313"
   id="linearGradient4319"
   x1="3.6697664e-05"
   y1="1.7437881"
   x2="9.2181436"
   y2="1.7437881"
   gradientUnits="userSpaceOnUse" /></defs>
 <g
   id="Layer_x0020_1"
   style="fill-opacity:1;fill:#ffffff">
  <metadata
   id="CorelCorpID_0Corel-Layer"
   style="fill-opacity:1;fill:url(#linearGradient4319)" />
  <path
   class="fil0"
   d="M2.06069 1.15366c2.45311,-2.11857 5.19836,-0.909372 6.47845,0.356804 0.303384,0.17651 0.387632,0.300935 0.497589,0.438827 0.122311,0.0186972 0.140674,0.0511946 0.14635,0.0645497 0.10762,0.56481 -0.021702,0.905699 -0.538545,0.902471 -0.0401766,-1.62187 -2.08707,-1.25093 -1.87294,0.109512 -2.28217,0 -2.79311,0 -4.10247,0 0.100497,-1.32149 -1.86526,-1.72893 -1.92926,0 -0.878321,-0.0276006 -0.746662,-0.441164 -0.712495,-0.831244 0.255528,0.0101276 0.284019,-0.950216 2.03332,-1.04092zm5.65099 0.866635c0.423913,0 0.767362,0.328313 0.767362,0.734197 0,0.405105 -0.343449,0.733863 -0.767362,0.733863 -0.423913,0 -0.767362,-0.328758 -0.767362,-0.733863 0,-0.405884 0.343449,-0.734197 0.767362,-0.734197zm-5.98954 0c0.423691,0 0.767585,0.328313 0.767585,0.734197 0,0.405105 -0.343894,0.733863 -0.767585,0.733863 -0.423913,0 -0.767807,-0.328758 -0.767807,-0.733863 0,-0.405884 0.343894,-0.734197 0.767807,-0.734197zm3.6297 -1.75653c-0.694799,-0.0964907 -1.63444,-0.0198101 -2.32568,0.559913 0,0.324084 0,0.0883663 0,0.412116 0.775264,0 1.55064,-0.0299377 2.32568,-0.0299377 0,-0.324195 0,-0.618008 0,-0.942092zm0.32887 0.0567592c0.325419,0.0338329 1.19361,0.313511 1.54151,0.875539 -0.502263,0 -1.00519,0 -1.50879,0 0,-0.290585 -0.03272,-0.584397 -0.03272,-0.875539z"
   id="path3799"
   style="fill-opacity:1;fill:#ffffff" />
 </g>
</svg>