<?xml version="1.0" encoding="UTF-8" standalone="no"?>
<!-- Generator: Adobe Illustrator 15.1.0, SVG Export Plug-In . SVG Version: 6.00 Build 0)  -->

<svg
   xmlns:dc="http://purl.org/dc/elements/1.1/"
   xmlns:cc="http://creativecommons.org/ns#"
   xmlns:rdf="http://www.w3.org/1999/02/22-rdf-syntax-ns#"
   xmlns:svg="http://www.w3.org/2000/svg"
   xmlns="http://www.w3.org/2000/svg"
   xmlns:sodipodi="http://sodipodi.sourceforge.net/DTD/sodipodi-0.dtd"
   xmlns:inkscape="http://www.inkscape.org/namespaces/inkscape"
   version="1.1"
   id="Layer_1"
   x="0px"
   y="0px"
   width="95.453px"
   height="100px"
   viewBox="0 0 95.453 100"
   enable-background="new 0 0 95.453 100"
   xml:space="preserve"
   inkscape:version="0.48.1 r9760"
   sodipodi:docname="dislike_icon.svg"><metadata
   id="metadata11"><rdf:RDF><cc:Work
       rdf:about=""><dc:format>image/svg+xml</dc:format><dc:type
         rdf:resource="http://purl.org/dc/dcmitype/StillImage" /></cc:Work></rdf:RDF></metadata><defs
   id="defs9" /><sodipodi:namedview
   pagecolor="#ffffff"
   bordercolor="#666666"
   borderopacity="1"
   objecttolerance="10"
   gridtolerance="10"
   guidetolerance="10"
   inkscape:pageopacity="0"
   inkscape:pageshadow="2"
   inkscape:window-width="1366"
   inkscape:window-height="691"
   id="namedview7"
   showgrid="false"
   inkscape:zoom="2.7595452"
   inkscape:cx="64.966708"
   inkscape:cy="70.634921"
   inkscape:window-x="0"
   inkscape:window-y="25"
   inkscape:window-maximized="1"
   inkscape:current-layer="Layer_1" />
<path
   d="M3.337,43.463c-0.216,1.638-3.234,4.062-3.332,5.712c-0.175,3,3.879,8.87,6.664,9.997  c4.422,1.789,26.896,0.952,26.896,0.952c2.196,3.84-3.914,13.321-5.594,17.415c-2.467,5.999-2.051,13.959,1.069,18.048  c3.81,4.996,10.805,5.329,10.949,3.093c1.042-16.214,4.146-20.712,8.302-23.918c2.496-1.926,4.679-3.611,5.83-6.546  c7.083-18.038,12.332-22.214,15.332-22.214h2V5.003L50.458,1.098c0,0-26.065-2.467-34.272,0C13.604,1.872,9.147,5.75,8.094,8.238  c-0.602,1.428,0.233,4.809-0.478,6.188c-1.049,2.043-5.479,4.602-5.475,7.378c0.004,1.979,2.311,5.405,2.143,7.379  C4.118,31.158-0.003,33.867,0,35.847C0.009,37.924,3.611,41.403,3.337,43.463z"
   id="path3"
   style="fill:#ffffff;fill-opacity:1" />
<path
   d="M75.453,6.003c0-2.209,1.791-4,4-4h12c2.209,0,4,1.791,4,4v37.999c0,2.209-1.791,4-4,4h-12c-2.209,0-4-1.791-4-4V6.003z"
   id="path5"
   style="stroke:none;stroke-opacity:0;fill:#ffffff;fill-opacity:1" />
</svg>