<?xml version="1.0" encoding="UTF-8" standalone="no"?>
<!-- Generator: Adobe Illustrator 15.1.0, SVG Export Plug-In . SVG Version: 6.00 Build 0)  -->

<svg
   xmlns:dc="http://purl.org/dc/elements/1.1/"
   xmlns:cc="http://creativecommons.org/ns#"
   xmlns:rdf="http://www.w3.org/1999/02/22-rdf-syntax-ns#"
   xmlns:svg="http://www.w3.org/2000/svg"
   xmlns="http://www.w3.org/2000/svg"
   xmlns:sodipodi="http://sodipodi.sourceforge.net/DTD/sodipodi-0.dtd"
   xmlns:inkscape="http://www.inkscape.org/namespaces/inkscape"
   version="1.1"
   id="Layer_1"
   x="0px"
   y="0px"
   width="95.453px"
   height="100px"
   viewBox="0 0 95.453 100"
   enable-background="new 0 0 95.453 100"
   xml:space="preserve"
   inkscape:version="0.48.1 r9760"
   sodipodi:docname="like_icon.svg"><metadata
   id="metadata11"><rdf:RDF><cc:Work
       rdf:about=""><dc:format>image/svg+xml</dc:format><dc:type
         rdf:resource="http://purl.org/dc/dcmitype/StillImage" /></cc:Work></rdf:RDF></metadata><defs
   id="defs9" /><sodipodi:namedview
   pagecolor="#ffffff"
   bordercolor="#666666"
   borderopacity="1"
   objecttolerance="10"
   gridtolerance="10"
   guidetolerance="10"
   inkscape:pageopacity="0"
   inkscape:pageshadow="2"
   inkscape:window-width="1366"
   inkscape:window-height="691"
   id="namedview7"
   showgrid="false"
   inkscape:zoom="2.7595452"
   inkscape:cx="64.966708"
   inkscape:cy="70.634921"
   inkscape:window-x="0"
   inkscape:window-y="25"
   inkscape:window-maximized="1"
   inkscape:current-layer="Layer_1" />
<path
   d="M 91.977943,56.542067 C 92.193273,54.90352 95.20192,52.478709 95.299616,50.828158 95.474073,47.827155 91.432638,41.955193 88.65627,40.827817 84.247975,39.038219 61.843629,39.875498 61.843629,39.875498 59.654435,36.034215 65.745498,26.550046 67.420291,22.454678 69.879645,16.453673 69.464935,8.4910124 66.354604,4.4006458 62.556413,-0.59702401 55.583093,-0.93013531 55.439539,1.306612 c -1.038771,16.219419 -4.13315,20.718923 -8.27627,23.925994 -2.488264,1.926644 -4.664498,3.612207 -5.811931,6.548188 -7.061047,18.044029 -12.293779,22.221424 -15.284481,22.221424 h -1.993801 v 41.012703 l 20.92993,3.906306 c 0,0 25.984216,2.467823 34.16578,0 2.573997,-0.774259 7.017184,-4.653555 8.06692,-7.142387 0.600134,-1.428477 -0.232278,-4.810607 0.476519,-6.190068 1.045748,-2.043683 5.462019,-4.603538 5.458031,-7.380466 -0.004,-1.979661 -2.303838,-5.406806 -2.136358,-7.381466 0.165485,-1.97566 4.273713,-4.685566 4.270722,-6.666227 -0.009,-2.077695 -3.599808,-5.557857 -3.326657,-7.618546 z"
   id="path3"
   style="fill:#ffffff;fill-opacity:1"
   inkscape:connector-curvature="0" />
<path
   d="m 20.085453,94.014587 c 0,2.209739 -1.785449,4.001337 -3.987603,4.001337 H 4.135042 c -2.2021536,0 -3.9876027,-1.791598 -3.9876027,-4.001337 v -38.0117 c 0,-2.209738 1.7854491,-4.001337 3.9876027,-4.001337 H 16.09785 c 2.202154,0 3.987603,1.791599 3.987603,4.001337 v 38.0117 z"
   id="path5"
   style="fill:#ffffff;fill-opacity:1;stroke:none"
   inkscape:connector-curvature="0" />
</svg>