<?xml version="1.0" encoding="UTF-8" standalone="no"?>
<!-- Generator: Adobe Illustrator 14.0.0, SVG Export Plug-In . SVG Version: 6.00 Build 43363)  -->

<svg
   xmlns:dc="http://purl.org/dc/elements/1.1/"
   xmlns:cc="http://creativecommons.org/ns#"
   xmlns:rdf="http://www.w3.org/1999/02/22-rdf-syntax-ns#"
   xmlns:svg="http://www.w3.org/2000/svg"
   xmlns="http://www.w3.org/2000/svg"
   xmlns:sodipodi="http://sodipodi.sourceforge.net/DTD/sodipodi-0.dtd"
   xmlns:inkscape="http://www.inkscape.org/namespaces/inkscape"
   version="1.0"
   id="Layer_1"
   x="0px"
   y="0px"
   width="55.74px"
   height="100px"
   viewBox="0 0 55.74 100"
   enable-background="new 0 0 55.74 100"
   xml:space="preserve"
   inkscape:version="0.48.1 r9760"
   sodipodi:docname="walking_icon.svg"><metadata
   id="metadata4433"><rdf:RDF><cc:Work
       rdf:about=""><dc:format>image/svg+xml</dc:format><dc:type
         rdf:resource="http://purl.org/dc/dcmitype/StillImage" /></cc:Work></rdf:RDF></metadata><defs
   id="defs4431" /><sodipodi:namedview
   pagecolor="#ffffff"
   bordercolor="#666666"
   borderopacity="1"
   objecttolerance="10"
   gridtolerance="10"
   guidetolerance="10"
   inkscape:pageopacity="0"
   inkscape:pageshadow="2"
   inkscape:window-width="769"
   inkscape:window-height="480"
   id="namedview4429"
   showgrid="false"
   inkscape:zoom="3.15"
   inkscape:cx="27.870001"
   inkscape:cy="53.650794"
   inkscape:window-x="0"
   inkscape:window-y="25"
   inkscape:window-maximized="0"
   inkscape:current-layer="Layer_1" />
<path
   d="M31.269,13.769c3.862,0,6.884-3.025,6.884-6.885C38.153,3.022,35.131,0,31.269,0c-3.86,0-6.885,3.022-6.885,6.884  C24.384,10.744,27.409,13.769,31.269,13.769z"
   id="path4425"
   style="fill-opacity:1;fill:#ffffff" />
<path
   d="M1.249,51.724l4.512-0.421L5.863,35.25l8.224-5.204c0,0-1.333,10.545-1.333,16.085c0,4.831-0.172,8.736-0.172,8.736  L2.054,96.918L9.489,100L21.28,61.549l8.195,10.424l9.339,26.337l8.394-3.355l-9.425-27.965L27.446,50.665l2.901-21.399l6.46,13.544  l16.622,5.708l2.311-4.199l-15.234-8.887c0,0-3.691-9.819-6.711-15.962c-1.027-2.091-5.196-2.774-6.894-2.901  c-4.896-0.362-7.428,1.296-11.488,3.432C11.358,22.131,0,30.728,0,30.728L1.249,51.724z"
   id="path4427"
   style="fill:#ffffff;fill-opacity:1" />
</svg>